<svg width="128" height="34" viewBox="0 0 128 34" fill="none" xmlns="http://www.w3.org/2000/svg">
<path d="M79.732 3.8993C79.732 4.85035 79.3904 5.66667 78.7071 6.34825C78.0397 7.01399 77.2373 7.34685 76.2998 7.34685C75.3464 7.34685 74.5281 7.01399 73.8448 6.34825C73.1774 5.68252 72.8438 4.8662 72.8438 3.8993C72.8438 2.9641 73.1774 2.16364 73.8448 1.4979C74.5281 0.816317 75.3464 0.475524 76.2998 0.475524C77.2373 0.475524 78.0397 0.816317 78.7071 1.4979C79.3904 2.16364 79.732 2.9641 79.732 3.8993ZM68.911 3.8993C68.911 4.85035 68.5694 5.66667 67.8861 6.34825C67.2029 7.01399 66.3925 7.34685 65.455 7.34685C64.5016 7.34685 63.6833 7.01399 63 6.34825C62.3326 5.66667 61.9989 4.85035 61.9989 3.8993C61.9989 2.9641 62.3326 2.16364 63 1.4979C63.6833 0.816317 64.5016 0.475524 65.455 0.475524C66.3925 0.475524 67.2029 0.808392 67.8861 1.47413C68.5694 2.13986 68.911 2.94825 68.911 3.8993Z" fill="white"/>
<path d="M113.461 15.9063V10.5804H116.392V6.96643L123.757 1.68811V10.5804H128V15.9063H123.757V25.8685C123.757 26.772 123.869 27.3823 124.091 27.6993C124.329 28.0005 124.862 28.1511 125.688 28.1511C126.371 28.1511 127.142 27.9925 128 27.6755V32.7636C126.109 33.5403 124.258 33.9287 122.447 33.9287C118.41 33.9287 116.392 31.9315 116.392 27.9371V15.9063H113.461Z" fill="white"/>
<path fill-rule="evenodd" clip-rule="evenodd" d="M20.9031 16.9049V22.1827L32.398 16.9049H20.9031ZM32.8837 16.9049L20.9031 22.4923H26.7426C26.2341 24.22 25.3204 25.5674 24.0016 26.5343C22.6827 27.5012 21.0222 27.9846 19.0201 27.9846C16.303 27.9846 13.9989 27.0019 12.1081 25.0364C10.2172 23.055 9.27172 20.1781 9.27172 16.4056C9.27172 13.1086 10.2013 10.5329 12.0604 8.67832C13.9195 6.80793 16.1679 5.87273 18.8056 5.87273C20.8077 5.87273 22.6827 6.44336 24.4306 7.58462C26.1785 8.72587 27.3464 10.2872 27.9343 12.2685H33.5593V0.523077H27.9343V3.23357C25.4555 1.07786 21.9915 0 17.5424 0C14.3962 0 11.4804 0.665734 8.79502 1.9972C6.10964 3.32867 3.97246 5.31002 2.38347 7.94126C0.794492 10.5566 0 13.5762 0 17C0 21.9296 1.59693 25.9953 4.79078 29.1972C8.00053 32.3991 10.8925 34 16.8829 34C20.331 34 23.4375 33.3263 26.2023 31.979C28.983 30.6317 31.0964 28.7851 32.5424 26.4392C34.0042 24.0932 34.7352 20.9152 34.7352 16.9049H32.8837Z" fill="white"/>
<path d="M51.3925 33.5958V28.2937H46.7924V25.4643C46.7924 23.5622 47.1737 21.9138 47.9364 20.5189C48.6992 19.124 50.0164 17.2356 51.1923 16.8235C52.3681 16.4114 54.7648 15.9063 56.6239 15.9063H60.08V26.7958C60.08 29.0625 60.7076 30.8219 61.9629 32.0741C63.2341 33.3105 64.982 33.9287 67.2066 33.9287C69.4788 33.9287 71.7193 33.1678 73.928 31.6462V33.5958H85.0111H101.302V28.2937H97.7505V17.9035C99.1806 16.9049 100.579 16.4056 101.945 16.4056C102.724 16.4056 103.28 16.6354 103.614 17.0951C103.963 17.5548 104.138 18.4107 104.138 19.6629V33.5958H114.983V28.2937H111.503V19.1161C111.503 13.1879 109.175 10.2238 104.52 10.2238C102.231 10.2238 99.9751 11.0559 97.7505 12.7203V10.5804H85.1525V15.9063H90.3856V28.2937H85.0111H81.2929V10.5804H70.3766V15.9063H73.928V26.249C72.4502 27.3427 71.0916 27.8895 69.8522 27.8895C68.9306 27.8895 68.295 27.6835 67.9454 27.2713C67.5959 26.8434 67.4211 26.0587 67.4211 24.9175V10.5804H56.6239C56.2814 10.5686 55.311 10.5744 54.6814 10.5781L54.6537 10.5783C54.449 10.5795 54.287 10.5804 54.205 10.5804C52.2029 10.5804 50.4629 10.842 48.9852 12.0783C47.5233 13.2988 46.5858 14.7492 46.1727 16.4294V10.7073L35.161 15.8428V15.9063H39.4274V28.2937H35.161V33.5958H51.3925Z" fill="white"/>
</svg>
